<!DOCTYPE svg PUBLIC "-//W3C//DTD SVG 1.1//EN" "http://www.w3.org/Graphics/SVG/1.1/DTD/svg11.dtd">

<!-- Uploaded to: SVG Repo, www.svgrepo.com, Transformed by: SVG Repo Mixer Tools -->
<svg version="1.1" id="Layer_1" xmlns="http://www.w3.org/2000/svg" xmlns:xlink="http://www.w3.org/1999/xlink" viewBox="0 0 508 508" xml:space="preserve" width="800px" height="800px" fill="#fff" stroke="#fff">

<g id="SVGRepo_bgCarrier" stroke-width="0"/>

<g id="SVGRepo_tracerCarrier" stroke-linecap="round" stroke-linejoin="round"/>

<g id="SVGRepo_iconCarrier"> <circle style="fill:#FFD05B;" cx="254" cy="254" r="254"/> <path style="fill:#FFFFFF;" d="M327.6,75.6H128c-8,0-14.4,6.4-14.4,14.4v328.4c0,8,6.4,14.4,14.4,14.4h251.6c8,0,14.4-6.4,14.4-14.4 V142h-52c-8,0-14.4-6.4-14.4-14.4V75.6z"/> <path style="fill:#ACB3BA;" d="M216,180c-1.6,11.6-4.8,25.6-10.8,40.8c-1.6,0-3.2,0.4-5.2,0.4c-1.6,0-3.2,0-4.8-0.4 c-6-15.2-9.2-29.2-10.8-40.4c3.6-11.6,16-12.4,16-12.4S212.4,168.4,216,180z"/> <path style="fill:#F9B54C;" d="M200.4,167.6C200,167.6,200,167.6,200.4,167.6C200,167.6,200,167.6,200.4,167.6 c-16.8-8-14.8-18.4-14.8-18.4v-0.4c4,4.8,9.2,8.4,14.8,8.4s10.4-3.2,14.8-8.4v0.4c0,0,0,0,0,0.4 C215.2,150.8,215.2,160.4,200.4,167.6z"/> <g> <path style="fill:#F1543F;" d="M200.4,167.6C200,167.6,200,167.6,200.4,167.6C200,167.6,200,167.6,200.4,167.6L200.4,167.6z"/> <path style="fill:#F1543F;" d="M206,169.2l-2,5.6h-7.6l-2-5.6c3.2-1.2,5.6-1.6,5.6-1.6S202.8,167.6,206,169.2z"/> </g> <g> <path style="fill:#FF7058;" d="M209.2,210c-1.2,3.6-2.4,7.2-4,10.8c-1.6,0-3.2,0-4.8,0s-3.2,0-4.8,0c-1.6-3.6-2.8-7.2-4-10.8 l4.8-35.2h7.6L209.2,210z"/> <path style="fill:#FF7058;" d="M210.4,220L210.4,220c-0.4,0-0.8,0-1.2,0C209.6,220,210,220,210.4,220z"/> </g> <g> <path style="fill:#324A5E;" d="M255.2,192.8c-11.6,15.6-29.6,26.4-50,28c6-15.2,9.2-29.2,10.8-40.8l0,0c0.4-1.2,4.4-15.6,2-24.8 l29.6,14L255.2,192.8z"/> <path style="fill:#324A5E;" d="M195.2,220.8c-20.4-1.6-38.4-12-50-28l7.6-23.6l29.2-14c-2.4,9.6,2,25.2,2,25.2 C186,191.6,189.2,205.6,195.2,220.8z"/> </g> <g> <path style="fill:#E6E9EE;" d="M214.8,149.2c0,0,2,10.4-14.8,18.4c0,0,12.4,0.8,16,12.4C216.4,180.4,222.8,155.2,214.8,149.2z"/> <path style="fill:#E6E9EE;" d="M185.6,149.2c0,0-2,10.4,14.8,18.4c0,0-12.4,0.8-16,12.4C184,180.4,177.2,155.2,185.6,149.2z"/> </g> <path style="fill:#FFD05B;" d="M218.8,137.2c-1.6,5.6-2.4,8.8-2.8,9.6l0,0c-4.4,6-10,10-16,10c-5.6,0-10.8-3.6-15.2-8.8 c-8.8-11.2-2.8-31.6-2.8-31.6c4.4,5.2,19.2,5.6,19.2,5.6c-6-0.8-7.2-5.6-7.2-6c1.2,3.2,15.2,4.8,15.2,4.8 C223.6,123.2,218.8,137.2,218.8,137.2z"/> <path style="fill:#324A5E;" d="M191.6,95.2c0,0,20-8,30,10c10.8,19.2-2.8,40-5.6,41.6c0,0,0.8-3.2,2.8-9.6c0,0,4.8-14.4-9.6-16.4 c0,0-14-2-15.2-4.8c0,0,1.2,5.2,7.2,6c0,0-14.4-0.4-19.2-5.6c0,0-6,20.4,2.8,31.6c0,0-15.6-12.4-13.6-31.6 C171.6,116.4,170.4,90,191.6,95.2z"/> <path style="fill:#CED5E0;" d="M327.6,75.6V128c0,8,6.4,14.4,14.4,14.4h52V89.6c0-8-6.4-14.4-14.4-14.4h-52V75.6z"/> <g> <path style="fill:#E6E9EE;" d="M327.6,75.6V128c0,8,6.4,14.4,14.4,14.4h52L327.6,75.6z"/> <rect x="136.4" y="246" style="fill:#E6E9EE;" width="235.2" height="13.2"/> <rect x="136.4" y="279.6" style="fill:#E6E9EE;" width="235.2" height="13.2"/> <rect x="136.4" y="313.2" style="fill:#E6E9EE;" width="235.2" height="13.2"/> <rect x="136.4" y="346.4" style="fill:#E6E9EE;" width="235.2" height="13.2"/> <rect x="136.4" y="380" style="fill:#E6E9EE;" width="132.4" height="13.2"/> </g> </g>

</svg>